<svg width="10" height="7" viewBox="0 0 10 7" fill="none" xmlns="http://www.w3.org/2000/svg">
<path d="M9.58008 0.972656C9.58008 0.972656 9.60775 0.972656 9.66309 0.972656C9.71842 0.972656 9.78841 1.01497 9.87305 1.09961C9.95768 1.18424 10 1.28516 10 1.40234C10 1.51953 9.96094 1.61719 9.88281 1.69531L5.3125 6.69531C5.23438 6.78646 5.13021 6.83203 5 6.83203C4.86979 6.83203 4.76562 6.78646 4.6875 6.69531L0.117188 1.69531C0.0390625 1.61719 0 1.51953 0 1.40234C0 1.28516 0.0423177 1.18424 0.126953 1.09961C0.211589 1.01497 0.309245 0.972656 0.419922 0.972656C0.530599 0.972656 0.63151 1.01823 0.722656 1.10938L5 5.81641L9.27734 1.10938C9.36849 1.01823 9.4694 0.972656 9.58008 0.972656Z" fill="#2F2D51"/>
</svg>
